<?xml version="1.0" standalone="no"?>
<!DOCTYPE svg PUBLIC "-//W3C//DTD SVG 20010904//EN"
 "http://www.w3.org/TR/2001/REC-SVG-20010904/DTD/svg10.dtd">
<svg version="1.0" xmlns="http://www.w3.org/2000/svg"
 width="600.000000pt" height="600.000000pt" viewBox="0 0 600.000000 600.000000"
 preserveAspectRatio="xMidYMid meet">
<metadata>
Created by potrace 1.14, written by Peter Selinger 2001-2017
</metadata>
<g transform="translate(0.000000,600.000000) scale(0.100000,-0.100000)"
fill="#000000" stroke="none">
<path d="M2715 5134 c-154 -16 -338 -49 -416 -74 -254 -83 -485 -237 -667
-442 -142 -161 -227 -306 -367 -623 -71 -160 -124 -267 -180 -360 -23 -38 -68
-115 -100 -170 -32 -55 -87 -143 -121 -196 -112 -170 -174 -323 -174 -431 0
-63 44 -265 73 -337 13 -31 64 -120 115 -199 51 -78 112 -184 136 -234 59
-126 100 -188 213 -320 159 -185 254 -322 343 -493 149 -285 218 -328 560
-355 158 -13 309 -8 550 17 197 20 693 13 835 -11 50 -9 133 -19 186 -22 83
-6 104 -4 162 15 130 44 227 143 252 261 26 121 121 333 216 480 95 149 162
281 194 380 15 47 31 89 35 93 4 5 49 -14 101 -41 113 -60 239 -92 384 -99
116 -6 172 6 216 45 46 42 49 88 10 166 -57 115 -206 328 -338 481 -217 252
-368 455 -424 572 -43 88 -58 139 -104 336 -74 319 -182 671 -242 792 -84 166
-294 401 -454 508 -174 115 -384 202 -589 242 -82 16 -322 27 -405 19z m250
-144 c61 -6 146 -20 190 -31 265 -68 433 -161 622 -343 174 -167 238 -272 322
-531 81 -247 106 -336 141 -510 47 -228 66 -290 130 -420 51 -103 82 -148 222
-321 90 -110 208 -254 263 -320 103 -122 260 -357 250 -373 -7 -13 -90 -4
-205 20 -94 20 -188 63 -286 130 -22 15 -53 31 -67 35 -26 6 -27 9 -27 74 0
38 -5 81 -10 96 -18 47 -37 10 -70 -141 -37 -168 -54 -222 -92 -298 -16 -32
-40 -90 -55 -130 -14 -40 -65 -137 -113 -217 -48 -80 -107 -191 -131 -248 -43
-104 -43 -104 -74 -97 -79 16 -127 16 -206 0 -168 -34 -335 -116 -449 -221
l-45 -41 -260 -6 c-143 -3 -314 -13 -380 -21 -200 -25 -197 -26 -245 43 -47
66 -140 146 -217 185 -103 51 -216 77 -366 83 l-138 6 -29 56 c-37 73 -114
177 -283 380 -75 91 -137 167 -137 170 0 3 23 4 50 3 33 -3 58 1 73 11 13 9
60 16 122 20 142 8 294 26 334 39 19 6 44 21 57 35 l22 23 48 -24 c58 -29 182
-56 257 -56 69 0 229 27 287 49 105 40 288 190 359 294 45 66 91 198 98 279 7
84 -14 147 -60 180 -52 37 -117 30 -482 -47 -93 -19 -248 -47 -343 -60 -95
-14 -189 -32 -210 -41 -31 -13 -44 -13 -80 -3 -23 6 -45 16 -48 20 -9 16 -106
9 -182 -12 -40 -11 -76 -18 -79 -16 -6 7 37 92 115 222 69 118 90 185 56 185
-38 0 -77 -38 -165 -160 -157 -219 -179 -293 -179 -592 0 -134 -3 -198 -11
-198 -38 0 -181 137 -262 251 -56 79 -140 271 -158 358 -18 96 -7 157 51 278
57 120 147 269 196 324 115 130 215 329 295 581 95 303 286 577 536 765 248
188 455 260 813 283 63 4 117 8 120 8 3 1 55 -3 115 -8z m-151 -2280 c-3 -120
-83 -259 -208 -362 -144 -119 -237 -152 -431 -152 -137 0 -202 22 -264 89 -61
66 -118 160 -126 205 -9 51 9 104 40 118 13 6 93 18 179 27 85 9 219 30 298
46 79 16 201 41 272 55 72 13 132 27 135 30 3 3 28 4 56 2 l50 -3 -1 -55z
m-1238 -96 c-37 -96 -32 -203 11 -296 33 -69 56 -98 90 -117 26 -14 79 -17
110 -7 28 9 39 -10 14 -24 -11 -5 -89 -15 -173 -20 -84 -6 -167 -12 -184 -15
l-32 -6 -7 114 c-8 123 -4 342 6 352 6 5 127 32 158 34 8 1 11 -5 7 -15z m88
-31 c-27 -76 -8 -173 47 -251 34 -48 34 -60 1 -36 -28 19 -58 78 -72 139 -11
51 0 146 21 171 17 21 18 17 3 -23z m242 -1278 c114 -22 195 -51 261 -94 59
-39 153 -126 153 -142 0 -12 -148 -11 -271 1 -165 16 -228 51 -296 165 -51 86
-51 85 16 85 33 0 94 -7 137 -15z m2050 -16 c22 -8 22 -8 5 -66 -21 -75 -86
-144 -150 -160 -44 -12 -161 -5 -293 17 -35 5 -85 10 -112 10 l-49 0 58 46
c160 124 423 198 541 153z"/>
<path d="M3636 3860 c-64 -77 -35 -210 49 -226 67 -13 119 85 95 178 -23 82
-95 106 -144 48z"/>
<path d="M2150 3849 c-40 -16 -59 -39 -74 -90 -40 -134 83 -240 170 -146 88
96 14 279 -96 236z"/>
<path d="M2880 3811 c-161 -36 -327 -121 -392 -202 -102 -127 -81 -228 57
-281 104 -40 229 -52 520 -50 314 2 414 14 503 59 72 36 97 70 97 131 -2 229
-439 420 -785 343z m400 -130 c111 -36 181 -79 228 -140 46 -60 40 -80 -28
-104 -107 -37 -645 -49 -785 -17 -79 18 -145 41 -145 50 0 19 25 67 59 112 28
38 48 53 100 74 136 54 195 64 341 60 117 -3 148 -8 230 -35z"/>
<path d="M2764 2719 c-6 -8 -19 -36 -28 -62 -34 -91 -200 -285 -298 -348 -27
-17 -48 -33 -48 -36 0 -9 64 9 115 32 117 53 283 294 273 396 -2 26 -5 29 -14
18z"/>
</g>
</svg>
